<?xml version="1.0" ?><!DOCTYPE svg  PUBLIC '-//W3C//DTD SVG 1.1//EN'  'http://www.w3.org/Graphics/SVG/1.1/DTD/svg11.dtd'><svg height="512" width="512"  style="enable-background:new 0 0 256 256;" version="1.1" viewBox="0 0 256 256"  xml:space="preserve" xmlns="http://www.w3.org/2000/svg" xmlns:xlink="http://www.w3.org/1999/xlink"><g id="Background_1_" style="enable-background:new    ;"><g id="Background"><g><path d="M249.422,30.679c-2.721-4.985-5.816-9.536-9.793-13.521     c-3.992-3.998-8.709-7.587-13.703-10.314c-8.381-4.576-18.788-6.856-29.002-6.856H59.075c-10.444,0-20.542,2.345-29.265,6.949     c-5.022,2.649-9.588,6.146-13.502,10.126c-3.932,3.998-7.491,8.488-10.046,13.572c-4.289,8.533-6.274,18.477-6.274,28.65v137.429     c0,10.327,1.671,20.679,6.296,29.135c2.681,4.9,6.191,9.86,10.087,13.794c3.934,3.971,8.583,7.226,13.503,9.956     c8.465,4.7,18.842,6.413,29.201,6.413h137.849c10.568,0,20.399-1.523,28.982-6.401c4.739-2.692,9.879-6.113,13.687-9.966     c3.923-3.969,7.2-8.851,9.886-13.799c4.566-8.415,6.533-18.874,6.533-29.132V59.285     C256.012,48.978,254.031,39.124,249.422,30.679z" style="fill-rule:evenodd;clip-rule:evenodd;fill:#FFFFFF;"/></g></g></g><g id="Shape_1_1_" style="enable-background:new    ;"><g id="Shape_1"><g><path d="M87.28,72.164c1.79,7.043,4.786,12.698,9.789,16.52     c2.29,1.749,5.998,4.205,10.554,3.441c10.607-1.776,15.632-9.756,18.125-19.578c3.938-15.519-3.335-31.813-13.689-36.098     c-1.848-0.764-3.938-1.025-6.577-0.994c-0.713,0.103-1.427,0.204-2.141,0.307c-1.685,0.493-3.288,1.076-4.665,1.912     c-6.806,4.131-10.139,11.602-11.931,20.801c-0.391,2.009-0.575,4.942-0.229,7.113C86.899,67.998,86.738,70.031,87.28,72.164z      M153.815,93.808c6.485,1.336,11.642-2.131,14.989-4.818c5.649-4.533,9.455-12.178,11.09-20.648     c2.162-11.208-5.799-21.941-11.854-25.85c-2.267-1.463-4.726-2.962-8.489-2.906c-0.662,0.077-1.325,0.153-1.988,0.229     c-1.248,0.484-2.498,0.969-3.747,1.453c-6.954,4.019-12.745,11.16-15.372,19.426c-0.601,1.891-0.774,3.889-1.146,6.118     c-0.477,2.85-0.173,6.883,0.305,9.33C139.602,86.38,143.688,91.722,153.815,93.808z M66.631,132.353     c10.175-1.716,15.895-6.346,18.737-15.296c1.448-4.562,2.396-14.623,0.918-20.113C83.79,87.67,75.414,77.268,63.572,77.441     c-0.841,0.103-1.683,0.204-2.524,0.306c-1.478,0.296-3.1,0.913-4.283,1.606c-6.879,4.035-10.245,11.735-12.16,20.726     c-2.74,12.864,3.211,24.592,10.707,29.52C57.811,131.241,61.929,133.146,66.631,132.353z M211.861,109.18     c-3.205-10.627-9.488-18.157-23.555-17.973c-0.867,0.103-1.733,0.204-2.6,0.307c-1.174,0.331-2.346,0.662-3.519,0.994     c-5.293,2.132-8.601,6.687-10.401,12.313c-0.938,2.933-1.053,6.143-1.605,9.56v8.336c0.511,3.244,0.304,6.016,1.146,8.719     c2.596,8.318,7.289,11.328,16.596,13.001c2.932,0.527,6.974,0.483,9.713-0.229c8.494-2.209,12.328-7.868,14.301-16.596     c0.559-2.466,0.163-4.959,0.612-7.724C213.099,116.511,212.665,111.843,211.861,109.18z M184.023,158.967     c-4.272-3.41-7.973-7.517-12.006-11.166c-2.738-2.478-5.641-5.229-7.954-8.106c-3.089-3.843-6.628-7.418-9.407-11.548     c-2.979-4.428-6.027-8.994-10.324-12.084c-4.972-3.575-10.01-6.262-18.813-6.118c-1.756,0.692-3.886,0.48-5.583,0.994     c-4.909,1.486-8.684,3.991-12.237,6.807c-3.713,2.942-5.826,7.385-8.565,11.318c-2.299,3.302-5.248,6.024-7.724,9.101     c-1.147,1.198-2.295,2.396-3.442,3.595c-3.598,2.896-6.721,6.476-10.324,9.33c-8.111,6.428-13.801,10.791-19.119,20.19     c-7.39,13.061-0.683,32.568,7.877,39.462c2.934,2.363,6.507,4.376,10.707,5.43c2.057,0.517,4.396,0.308,6.73,0.688h3.671     c1.745,0.289,4.271,0.195,5.965-0.076c1.224-0.051,2.447-0.102,3.671-0.153c3.614-0.604,7.202-0.528,10.63-1.224     c3.933-0.796,7.771-1.455,11.854-2.218c1.657-0.102,3.314-0.204,4.971-0.306l4.818-0.076c3.652,0.606,7.199,0.523,10.554,1.224     c3.391,0.917,6.781,1.835,10.172,2.753c2.498,0.459,4.996,0.918,7.494,1.376c10.068,1.963,22.086,0.087,28.45-3.747     c3.111-1.874,5.755-4.324,7.801-7.266c5.083-7.307,8.204-22.442,3.747-32.731C194.617,167.444,189.555,163.38,184.023,158.967z      M121.618,202.176c0,0-10.06,0-15.295,0c-3.566,0-9.638,0.568-12.619-0.229c-9.014-2.411-13.967-8.329-15.907-17.896     c-0.478-2.356-0.753-5.716-0.306-8.412c0.312-1.884,0.529-3.393,1.147-4.895c2.984-7.256,8.682-12.662,17.437-14.148     c4.613-0.025,9.229-0.051,13.842-0.077c0.076-0.025,0.153-0.051,0.229-0.076c0.051-5.531,0.102-11.064,0.153-16.596     c0.127-0.076,0.255-0.152,0.382-0.229c3.594,0.051,10.969,0.153,10.969,0.153L121.618,202.176z M169.111,202.176     c0,0-10.027,0-15.373,0c-8.791,0-16.851,0.892-21.336-3.518c-4.219-4.146-3.9-9.365-3.9-17.667c0.025-7.748,0-23.401,0-23.401     h11.854v24.549c0,0-0.306,6.081,0.842,7.725c1.65,2.365,5.696,1.912,9.712,1.912c2.091-0.025,6.501-0.077,6.501-0.077V157.59     h11.701V202.176z M89.957,174.262c-2.445,7.865,0.834,15.292,7.036,17.207c1.6,0.494,3.937,0.307,5.965,0.307     c4.518-0.054,6.73,0,6.73,0v-24.702c0,0-7.546-0.052-11.242-0.077C96.11,167.393,91.391,169.648,89.957,174.262z" style="fill-rule:evenodd;clip-rule:evenodd;fill:#1B78D7;"/></g></g></g></svg>